<?xml version="1.0" encoding="UTF-8"?>
<svg id="Layer_1" data-name="Layer 1" xmlns="http://www.w3.org/2000/svg" viewBox="0 0 309.18 123.18">
  <defs>
    <style>
      .cls-1 {
        fill: #662d91;
      }
    </style>
  </defs>
  <g>
    <ellipse class="cls-1" cx="29.1" cy="18.11" rx="8.26" ry="7.47"/>
    <ellipse class="cls-1" cx="49.93" cy="13.7" rx="9.17" ry="8.26"/>
    <circle class="cls-1" cx="71.78" cy="18.57" r="7.93"/>
    <circle class="cls-1" cx="85.37" cy="27.63" r="5.66"/>
    <ellipse class="cls-1" cx="91.82" cy="40.08" rx="4.42" ry="3.62"/>
    <circle class="cls-1" cx="94.31" cy="50.84" r="3.28"/>
    <circle class="cls-1" cx="99.97" cy="67.59" r="8.94"/>
    <ellipse class="cls-1" cx="108.8" cy="48.91" rx="8.49" ry="7.7"/>
    <circle class="cls-1" cx="102.58" cy="31.02" r="6.34"/>
    <circle class="cls-1" cx="94.42" cy="14.04" r="5.89"/>
    <circle class="cls-1" cx="83.56" cy="6.79" r="3.85"/>
    <circle class="cls-1" cx="72.91" cy="3.4" r="3.4"/>
    <ellipse class="cls-1" cx="16.76" cy="31.25" rx="5.66" ry="4.76"/>
    <circle class="cls-1" cx="8.38" cy="41.66" r="4.3"/>
    <circle class="cls-1" cx="3.85" cy="52.76" r="3.85"/>
    <circle class="cls-1" cx="18.57" cy="53.44" r="5.89"/>
    <circle class="cls-1" cx="30.8" cy="41.21" r="6.34"/>
    <circle class="cls-1" cx="39.97" cy="30.68" r="4.19"/>
    <circle class="cls-1" cx="50.72" cy="28.08" r="2.49"/>
    <circle class="cls-1" cx="14.04" cy="71.78" r="8.38"/>
    <circle class="cls-1" cx="19.25" cy="92.39" r="9.96"/>
    <circle class="cls-1" cx="26.27" cy="107.78" r="5.43"/>
    <circle class="cls-1" cx="38.49" cy="113.22" r="3.85"/>
    <circle class="cls-1" cx="49.14" cy="115.71" r="4.08"/>
    <circle class="cls-1" cx="70.08" cy="112.2" r="10.98"/>
    <circle class="cls-1" cx="92.73" cy="102.92" r="6.45"/>
    <circle class="cls-1" cx="104.95" cy="94.08" r="5.77"/>
    <circle class="cls-1" cx="112.99" cy="83.1" r="4.3"/>
    <circle class="cls-1" cx="114.24" cy="69.18" r="3.51"/>
    <circle class="cls-1" cx="92.84" cy="81.97" r="5.43"/>
    <circle class="cls-1" cx="81.18" cy="92.27" r="4.87"/>
    <circle class="cls-1" cx="69.06" cy="94.42" r="3.85"/>
    <circle class="cls-1" cx="50.95" cy="100.99" r="6.79"/>
    <circle class="cls-1" cx="39.4" cy="91.03" r="4.76"/>
    <circle class="cls-1" cx="32.95" cy="82.54" r="3.74"/>
    <circle class="cls-1" cx="29.44" cy="73.37" r="3.17"/>
  </g>
  <g>
    <path class="cls-1" d="m141.42,52.52s17.12-21.64-1.51-23.9c-18.63-2.26-18.63,5.65-18.63,5.65l6.77,54.19s19.2.94,26.54-13.83c7.34-14.77-5.65-23.8-13.18-22.11Zm-12.89-14.77s9.79-7.34,10.5,0c.71,7.34-7.6,9.79-7.6,9.79,0,0-2.9-9.22-2.9-9.79Zm8.17,37.45s-2.9-9.22-2.9-9.79c0,0,9.79-7.34,10.5,0,.71,7.34-7.6,9.79-7.6,9.79Z"/>
    <path class="cls-1" d="m158.08,37.37s-2.58,50.78,13.29,47.77c15.87-3.01,18.66-24.21,15.85-47.77h-9.76s7.75,34.61-4.41,37.8c-12.16,3.19-2.29-39.71-2.29-39.71l-12.68,1.91Z"/>
    <path class="cls-1" d="m223.88,73.63l-12.93-16.12s17.31-13.36,3.95-23.52c-13.36-10.16-23.9.94-23.9.94l3.41,51.75,10.89-2.45-4.79-21.92,13.07,21.17,10.3-9.85Zm-20.65-19.7l-4.7-11.29s7.53-6.02,10.35,2.07c2.82,8.09-5.65,9.22-5.65,9.22Z"/>
    <path class="cls-1" d="m221.55,36.85l5.2,49.82,10.45-1.44-3.11-25.09s17.85,2.82,19.37-18.44c1.52-21.26-31.91-4.85-31.91-4.85Zm14.42,15.09l-5.08-8.93s6.59-6.21,10.35-3.01-5.27,11.94-5.27,11.94Z"/>
    <polygon class="cls-1" points="255.55 32.15 259.5 87.24 279.59 85.17 276.81 71.99 263.07 74.44 269.84 29.3 255.55 32.15"/>
    <polygon class="cls-1" points="277.4 33.09 284.52 81.97 309.18 80.65 307.48 70.11 291.68 73.5 290.21 57.53 305.25 54.97 304.23 43.87 286.14 48.18 285.09 39.25 303.15 36.43 304.09 24.95 277.4 33.09"/>
  </g>
</svg>